# xmcd
#
# Track frame offsets: 
#        150
#        29862
#        44847
#        69822
#        97275
#        117870
#        142127
#        171202
#        197787
#        220035
#
# Disc length: 3109 seconds
#
# Revision: 2
# Processed by: cddbd v1.5.2PL0 Copyright (c) Steve Scherf et al.
# Submitted via: ExactAudioCopy v1.3
#
DISCID=a00c230a
DTITLE=Otavalomanta - Andes Cosmos
DYEAR=1998
DGENRE=Native American
TTITLE0=The Widow's Alley
TTITLE1=Wara
TTITLE2=Ukumampi Munataxa
TTITLE3=The Inka Trail
TTITLE4=Valley of the Moon
TTITLE5=Memories of Sanillani
TTITLE6=Romeo and Juliet
TTITLE7=Condor Pasa
TTITLE8=Don't Ever Come Back
TTITLE9=Door of the Sun
EXTD=YEAR: 2002 ID3G: 64
EXTT0=
EXTT1=
EXTT2=
EXTT3=
EXTT4=
EXTT5=
EXTT6=
EXTT7=
EXTT8=
EXTT9=
PLAYORDER=
